<svg version="1.0" xmlns="http://www.w3.org/2000/svg"
 width="156pt" height="12pt" viewBox="0 0 1563.000000 128.000000"
 preserveAspectRatio="xMidYMid meet">

<g transform="translate(0.000000,128.000000) scale(0.100000,-0.100000)"
fill="#FFFFFF" stroke="none">
<path d="M262 1187 c119 -34 219 -65 222 -68 3 -3 -9 -41 -28 -85 l-35 -79
155 -3 c85 -1 154 -4 154 -6 0 -3 -74 -172 -165 -376 -91 -204 -166 -376 -168
-383 -2 -12 319 -148 341 -144 11 2 222 462 362 789 l28 66 -66 18 c-37 9 -74
21 -82 25 -8 5 98 9 236 9 l251 0 63 138 c34 75 64 143 67 150 4 9 -154 12
-773 11 l-779 -1 217 -61z"/>
<path d="M1702 1233 c-5 -10 -102 -228 -216 -485 -174 -393 -205 -471 -196
-488 11 -20 19 -20 509 -20 462 0 499 1 513 18 9 9 93 193 188 407 95 215 192
433 215 485 l43 95 -206 3 c-113 1 -209 -1 -213 -5 -4 -5 -60 -127 -124 -273
-64 -146 -133 -302 -153 -347 l-37 -83 -110 1 c-84 0 -129 6 -190 24 l-80 23
96 1 95 1 124 278 c67 152 133 301 146 330 l24 52 -210 0 c-189 0 -210 -2
-218 -17z"/>
<path d="M2876 1242 c-3 -5 -96 -213 -206 -463 -111 -250 -210 -472 -220 -494
l-18 -40 206 -3 c113 -1 209 1 212 5 4 5 35 72 70 150 l63 143 103 0 c57 0
104 -2 104 -4 0 -2 -21 -50 -46 -107 -26 -57 -55 -123 -65 -147 l-18 -42 210
2 210 3 90 199 89 199 -30 49 c-17 26 -30 50 -30 52 0 2 30 23 67 47 36 24 70
47 75 50 5 3 45 88 89 188 64 148 77 185 69 201 -10 19 -24 20 -515 20 -277 0
-506 -4 -509 -8z m488 -314 c-3 -13 -13 -35 -21 -50 -13 -28 -14 -28 -119 -28
-100 0 -104 1 -94 19 5 11 10 22 10 24 0 3 -33 13 -72 22 -40 10 -80 21 -88
26 -8 5 74 9 188 9 l203 0 -7 -22z"/>
<path d="M3968 1078 c-205 -459 -368 -829 -368 -833 0 -3 231 -5 513 -5 395 0
517 3 529 13 16 12 178 369 178 390 0 7 -12 30 -25 52 -14 22 -25 43 -25 47 0
4 33 30 73 57 l74 49 78 176 c58 131 76 181 71 200 l-6 26 -508 0 -508 0 -76
-172z m572 -133 c0 -2 -10 -25 -22 -50 l-22 -45 -103 0 -103 0 6 24 c5 22 1
25 -63 41 -37 10 -75 22 -83 26 -8 5 76 9 188 9 111 0 202 -2 202 -5z m-140
-309 c0 -2 -9 -25 -20 -50 l-19 -46 -106 0 -105 0 16 38 c9 20 18 43 21 50 4
8 35 12 109 12 57 0 104 -2 104 -4z"/>
<path d="M5197 1233 c-8 -10 -97 -202 -197 -428 -100 -225 -193 -436 -208
-469 -43 -98 -81 -91 496 -94 l501 -2 16 24 c9 13 65 136 126 272 60 137 116
263 124 279 44 97 149 335 160 366 26 73 54 69 -504 69 -462 0 -499 -1 -514
-17z m493 -289 c0 -8 -61 -148 -145 -331 l-34 -73 -100 0 c-56 0 -101 4 -101
9 0 5 13 38 29 73 58 125 121 271 119 273 -2 1 -34 10 -73 20 -38 10 -77 22
-85 26 -8 5 76 9 188 9 111 0 202 -3 202 -6z"/>
<path d="M6368 1238 c-20 -16 -248 -529 -248 -557 0 -11 9 -25 19 -31 12 -6
126 -10 300 -10 155 0 281 -2 281 -4 0 -2 -9 -24 -20 -50 l-21 -46 -316 -2
-316 -3 -63 -140 c-35 -77 -63 -143 -63 -147 -1 -5 230 -8 512 -8 396 0 517 3
529 13 19 14 248 530 248 557 0 11 -9 24 -19 30 -12 6 -126 10 -301 10 l-280
0 5 23 c5 20 1 25 -32 35 -137 39 -155 37 286 42 l414 5 63 140 c34 77 63 143
63 148 1 4 -230 7 -512 7 -395 0 -517 -3 -529 -12z"/>
<path d="M7530 1235 c-7 -8 -93 -196 -192 -417 -98 -222 -188 -423 -200 -448
-30 -65 -37 -94 -26 -113 8 -16 53 -17 507 -17 462 0 499 1 513 18 9 9 42 75
73 147 32 72 68 154 81 183 l24 52 -211 0 -211 0 -21 -50 -21 -50 -103 0 c-57
0 -103 2 -103 5 0 3 34 81 75 175 41 94 75 172 75 174 0 2 -33 12 -72 21 -40
10 -80 21 -88 26 -8 5 74 9 188 9 216 0 216 0 187 -50 -29 -50 -30 -50 193
-50 l207 1 79 180 c63 141 78 184 69 197 -9 15 -56 17 -510 20 -436 2 -502 0
-513 -13z"/>
<path d="M8476 758 c-120 -271 -220 -498 -223 -505 -4 -10 37 -13 204 -13
l209 0 33 73 c18 39 58 129 88 200 l56 127 103 0 c57 0 104 -3 104 -6 0 -3
-37 -88 -81 -187 -45 -100 -83 -188 -86 -194 -4 -10 41 -13 206 -13 210 0 212
0 220 23 5 12 104 236 220 498 116 262 211 479 211 483 0 3 -93 6 -207 6
l-208 0 -89 -200 -88 -200 -104 0 c-57 0 -104 3 -104 6 0 3 4 13 9 23 8 15 3
19 -37 30 -137 36 -137 36 -27 41 l100 5 42 95 c23 52 51 116 63 141 11 25 20
48 20 52 0 4 -93 7 -207 7 l-208 0 -219 -492z"/>
<path d="M9648 763 c-119 -269 -220 -496 -223 -505 -7 -17 7 -18 203 -18 l210
0 15 38 c8 20 26 62 40 92 70 155 127 284 127 291 0 4 -34 15 -75 25 -41 10
-75 20 -75 23 0 7 168 6 174 0 2 -2 -2 -101 -9 -219 -7 -118 -12 -216 -11
-218 2 -1 60 67 130 152 70 85 134 160 142 167 8 6 1 -18 -17 -57 -54 -120
-111 -248 -120 -271 l-9 -23 209 0 208 0 128 287 c70 159 136 306 146 328 65
142 169 380 169 387 0 4 -94 8 -208 8 l-208 0 -164 -200 c-90 -110 -165 -198
-167 -196 -3 2 1 68 7 147 6 79 10 167 8 194 l-3 50 -205 3 -206 2 -216 -487z"/>
<path d="M11030 1018 c-57 -128 -115 -260 -130 -293 -58 -128 -210 -475 -210
-480 0 -3 94 -5 208 -5 l208 0 138 313 c76 171 141 319 143 328 3 11 -4 19
-24 23 -15 4 -53 15 -83 24 l-55 17 99 5 98 5 64 144 c35 79 64 145 64 147 0
2 -94 4 -209 4 l-208 0 -103 -232z"/>
<path d="M11652 1208 c-11 -24 -90 -203 -177 -398 -163 -369 -173 -391 -223
-502 l-31 -68 527 0 527 1 57 132 c32 73 60 140 64 150 6 16 -13 17 -306 17
l-311 0 7 23 c3 12 13 34 21 50 l14 27 263 0 263 0 41 96 c23 52 42 100 42
105 0 5 -108 9 -260 9 -255 0 -260 0 -250 19 5 11 10 22 10 24 0 2 -39 15 -87
28 l-88 24 416 3 417 2 57 126 c31 70 60 137 65 150 l10 24 -525 0 -524 0 -19
-42z"/>
<path d="M13350 1208 c-12 -24 -112 -250 -224 -503 l-204 -460 516 -3 c482 -2
517 -1 533 15 9 10 92 189 184 398 92 209 183 414 202 456 21 46 33 88 31 105
l-3 29 -508 3 -507 2 -20 -42z m510 -263 c0 -3 -36 -87 -81 -187 -44 -101 -83
-191 -86 -200 -5 -16 -19 -18 -109 -18 -57 0 -104 4 -104 9 0 5 34 84 75 176
41 93 74 169 73 170 -2 1 -34 10 -73 20 -38 10 -77 22 -85 26 -8 5 76 9 188 9
111 0 202 -2 202 -5z"/>
<path d="M14515 1217 c-25 -60 -417 -941 -426 -960 -9 -16 18 -17 518 -17
l528 1 60 137 c33 75 61 142 63 149 3 10 -62 13 -307 13 -171 0 -311 2 -311 4
0 2 9 25 20 50 l19 46 264 0 264 0 41 98 c23 53 42 100 42 105 0 4 -115 7
-256 7 l-256 0 6 24 c5 22 1 25 -82 47 l-87 24 418 5 417 5 58 130 c32 72 61
138 65 148 6 16 -23 17 -519 17 l-525 0 -14 -33z"/>
<path d="M12508 503 c-9 -21 -38 -89 -66 -151 l-51 -112 211 2 212 3 62 140
c35 77 63 143 64 148 0 4 -94 7 -208 7 l-209 0 -15 -37z"/>
</g>
</svg>